<svg xmlns="http://www.w3.org/2000/svg" viewBox="0 0 1242 2208" width="1242" height="2208">
  <rect width="1242" height="2208" fill="#F5F5F7"/>
  <rect x="0" y="0" width="1242" height="80" fill="#FAFAFA"/>
  <rect x="0" y="80" width="1242" height="120" fill="#FAFAFA"/>
  <rect x="0" y="200" width="1242" height="1" fill="#E0E0E0"/>
  <rect x="471" y="300" width="300" height="300" rx="28" fill="#139500"/>
  <rect x="501" y="340" width="240" height="240" rx="14" fill="#FAFAFA"/>
  <circle cx="621" cy="400" r="28" fill="#139500"/>
  <text x="621" y="540" font-family="system-ui, -apple-system, sans-serif" font-size="48" font-weight="700" fill="#303030" text-anchor="middle">Inkwell</text>
  <rect x="0" y="2080" width="1242" height="128" fill="#FAFAFA"/>
  <rect x="0" y="2079" width="1242" height="1" fill="#E0E0E0"/>
  <rect x="48" y="640" width="1146" height="240" rx="20" fill="#FAFAFA"/>
  <rect x="48" y="656" width="1146" height="1" fill="#E0E0E0"/>
  <rect x="72" y="700" width="500" height="28" rx="6" fill="#E8E8ED"/>
  <rect x="72" y="744" width="1000" height="20" rx="4" fill="#E8E8ED"/>
  <rect x="48" y="920" width="1146" height="240" rx="20" fill="#FAFAFA"/>
  <rect x="48" y="936" width="1146" height="1" fill="#E0E0E0"/>
  <rect x="72" y="980" width="600" height="28" rx="6" fill="#E8E8ED"/>
  <rect x="72" y="1024" width="900" height="20" rx="4" fill="#E8E8ED"/>
  <rect x="48" y="1200" width="1146" height="240" rx="20" fill="#FAFAFA"/>
  <rect x="48" y="1216" width="1146" height="1" fill="#E0E0E0"/>
  <rect x="72" y="1260" width="400" height="28" rx="6" fill="#E8E8ED"/>
  <rect x="72" y="1304" width="800" height="20" rx="4" fill="#E8E8ED"/>
  <rect x="483" y="2140" width="276" height="5" rx="2.5" fill="#303030" opacity="0.3"/>
</svg>
