<svg xmlns="http://www.w3.org/2000/svg" viewBox="0 0 1080 2400" width="1080" height="2400">
  <rect width="1080" height="2400" fill="#F5F5F7"/>
  <rect x="0" y="0" width="1080" height="72" fill="#FAFAFA"/>
  <circle cx="64" cy="36" r="16" fill="#139500"/>
  <rect x="160" y="26" width="260" height="24" rx="6" fill="#E8E8ED"/>
  <rect x="0" y="72" width="1080" height="120" fill="#FAFAFA"/>
  <rect x="0" y="192" width="1080" height="2" fill="#E0E0E0"/>
  <rect x="36" y="100" width="200" height="40" rx="8" fill="#E8E8ED"/>
  <rect x="36" y="220" width="1008" height="112" rx="16" fill="#FFFFFF"/>
  <rect x="36" y="220" width="1008" height="2" fill="#E0E0E0"/>
  <rect x="60" y="240" width="180" height="30" rx="6" fill="#E8E8ED"/>
  <rect x="60" y="284" width="760" height="22" rx="4" fill="#EDEDF1"/>
  <rect x="36" y="356" width="1008" height="112" rx="16" fill="#FFFFFF"/>
  <rect x="36" y="356" width="1008" height="2" fill="#E0E0E0"/>
  <rect x="60" y="376" width="220" height="30" rx="6" fill="#E8E8ED"/>
  <rect x="60" y="420" width="720" height="22" rx="4" fill="#EDEDF1"/>
  <rect x="36" y="492" width="1008" height="112" rx="16" fill="#FFFFFF"/>
  <rect x="36" y="492" width="1008" height="2" fill="#E0E0E0"/>
  <rect x="60" y="512" width="200" height="30" rx="6" fill="#E8E8ED"/>
  <rect x="60" y="556" width="760" height="22" rx="4" fill="#EDEDF1"/>
  <rect x="36" y="628" width="260" height="64" rx="32" fill="#FFFFFF"/>
  <rect x="60" y="652" width="40" height="16" rx="4" fill="#E8E8ED"/>
  <rect x="116" y="650" width="120" height="20" rx="5" fill="#E8E8ED"/>
  <rect x="316" y="628" width="260" height="64" rx="32" fill="#139500"/>
  <rect x="340" y="652" width="40" height="16" rx="4" fill="#CBE6C9"/>
  <rect x="396" y="650" width="120" height="20" rx="5" fill="#FAFAFA"/>
  <rect x="36" y="724" width="1008" height="1200" rx="20" fill="#FFFFFF"/>
  <rect x="36" y="724" width="1008" height="2" fill="#E0E0E0"/>
  <rect x="60" y="748" width="300" height="34" rx="6" fill="#E8E8ED"/>
  <rect x="60" y="796" width="900" height="22" rx="4" fill="#EDEDF1"/>
  <rect x="60" y="828" width="880" height="22" rx="4" fill="#EDEDF1"/>
  <rect x="60" y="860" width="940" height="22" rx="4" fill="#EDEDF1"/>
  <rect x="60" y="892" width="820" height="22" rx="4" fill="#EDEDF1"/>
  <rect x="60" y="924" width="300" height="34" rx="6" fill="#E8E8ED"/>
  <rect x="60" y="972" width="900" height="22" rx="4" fill="#EDEDF1"/>
  <rect x="60" y="1004" width="880" height="22" rx="4" fill="#EDEDF1"/>
  <rect x="60" y="1036" width="940" height="22" rx="4" fill="#EDEDF1"/>
  <rect x="60" y="1068" width="820" height="22" rx="4" fill="#EDEDF1"/>
  <rect x="60" y="1100" width="300" height="34" rx="6" fill="#E8E8ED"/>
  <rect x="60" y="1148" width="900" height="22" rx="4" fill="#EDEDF1"/>
  <rect x="60" y="1180" width="880" height="22" rx="4" fill="#EDEDF1"/>
  <rect x="60" y="1212" width="940" height="22" rx="4" fill="#EDEDF1"/>
  <rect x="60" y="1244" width="820" height="22" rx="4" fill="#EDEDF1"/>
  <rect x="0" y="2280" width="1080" height="120" fill="#FAFAFA"/>
  <rect x="0" y="2279" width="1080" height="1" fill="#E0E0E0"/>
  <rect x="126" y="2310" width="120" height="56" rx="16" fill="#E8E8ED"/>
  <rect x="480" y="2310" width="120" height="56" rx="16" fill="#E8E8ED"/>
  <rect x="834" y="2310" width="120" height="56" rx="16" fill="#139500"/>
  <rect x="414" y="2340" width="252" height="6" rx="3" fill="#303030" opacity="0.3"/>
</svg>
